<?xml version="1.0" standalone="no"?>
<!DOCTYPE svg PUBLIC "-//W3C//DTD SVG 20010904//EN"
 "http://www.w3.org/TR/2001/REC-SVG-20010904/DTD/svg10.dtd">
<svg version="1.0" xmlns="http://www.w3.org/2000/svg"
 width="512.000000pt" height="512.000000pt" viewBox="0 0 512.000000 512.000000"
 preserveAspectRatio="xMidYMid meet">
<metadata>
Created by potrace 1.14, written by Peter Selinger 2001-2017
</metadata>
<g transform="translate(0.000000,512.000000) scale(0.100000,-0.100000)"
fill="#000000" stroke="none">
<path d="M843 4625 c-167 -45 -303 -180 -347 -346 -22 -82 -23 -3348 -1 -3432
45 -171 177 -306 346 -351 84 -23 3348 -23 3434 -1 164 43 286 157 339 317
l25 73 -2 1690 c-2 1854 2 1712 -63 1825 -62 107 -173 191 -295 224 -80 22
-3357 22 -3436 1z m812 -1278 c54 -19 721 -688 735 -737 13 -46 12 -79 -3
-113 -12 -27 -633 -657 -695 -705 -43 -33 -122 -36 -172 -6 -63 37 -94 129
-65 197 7 16 135 152 285 303 l274 274 -281 283 c-246 248 -281 287 -286 319
-20 130 89 226 208 185z m1951 -1133 c52 -38 68 -70 69 -133 0 -48 -5 -64 -29
-95 -51 -67 -40 -66 -594 -66 -275 0 -514 3 -532 6 -18 4 -49 23 -70 43 -82
78 -57 210 48 258 20 9 159 11 554 10 515 -2 527 -2 554 -23z"/>
</g>
</svg>
